<svg width="282" height="262" viewBox="0 0 282 262" fill="none" xmlns="http://www.w3.org/2000/svg">
<path d="M246.75 54.4089C233.707 50.6003 219.372 48.968 205.625 48.968C182.712 48.968 158.038 53.3207 141 65.2907C123.962 53.3207 99.2875 48.968 76.375 48.968C53.4625 48.968 28.7875 53.3207 11.75 65.2907V233.958C28.7875 221.988 53.4625 217.636 76.375 217.636C99.2875 217.636 123.962 221.988 141 233.958C158.038 221.988 182.712 217.636 205.625 217.636C219.372 217.636 233.707 219.268 246.75 223.076C255.562 225.797 263.2 229.061 270.25 233.958V65.2907C263.2 60.3939 255.562 57.1293 246.75 54.4089ZM246.75 201.313C233.825 197.504 219.725 195.872 205.625 195.872C185.65 195.872 156.863 202.945 141 212.195V87.0542C156.863 77.8047 185.65 70.7316 205.625 70.7316C219.725 70.7316 233.825 72.3638 246.75 76.1725V201.313Z" fill="white"/>
<path d="M205.625 114.259C215.965 114.259 225.953 115.238 235 117.088V100.548C225.717 98.9153 215.73 97.9359 205.625 97.9359C185.65 97.9359 167.555 101.092 152.75 106.968V125.032C166.027 118.067 184.475 114.259 205.625 114.259Z" fill="white"/>
<path d="M152.75 135.913V153.977C166.027 147.013 184.475 143.204 205.625 143.204C215.965 143.204 225.953 144.183 235 146.033V129.493C225.717 127.861 215.73 126.881 205.625 126.881C185.65 126.881 167.555 130.146 152.75 135.913Z" fill="white"/>
<path d="M205.625 155.936C185.65 155.936 167.555 159.092 152.75 164.968V183.031C166.027 176.067 184.475 172.258 205.625 172.258C215.965 172.258 225.953 173.238 235 175.088V158.547C225.717 156.806 215.73 155.936 205.625 155.936Z" fill="white"/>
</svg>
