<svg xmlns="http://www.w3.org/2000/svg" version="1.1" xmlns:xlink="http://www.w3.org/1999/xlink" xmlns:svgjs="http://svgjs.com/svgjs" width="128" height="128"><svg width="128" height="128" viewBox="0 0 128 128" fill="none" xmlns="http://www.w3.org/2000/svg">
<path d="M60.9399 122.286C59.5401 117.753 57.2803 116.134 52.3229 116.113C47.509 116.093 42.984 114.126 40.7398 111.077C38.6243 108.202 38.6016 106.438 40.6956 107.636C41.6862 108.203 44.1931 108.341 47.7789 108.028C54.146 107.471 56.0566 108.188 58.4889 112.045C59.353 113.415 60.3069 116.205 60.6088 118.245L61.1576 121.953L62.3596 115.354C64.0599 106.019 64.9162 104.361 76.3345 88.2969C79.5604 83.7584 81.7425 77.43 80.9834 74.8143C80.8242 74.2657 80.4969 72.856 80.2562 71.6817C79.672 68.8325 78.3931 68.9535 78.3931 71.8581C78.3931 74.0768 75.2342 84.1026 74.1803 85.229C73.9001 85.5284 73.6709 83.7819 73.6709 81.3479C73.6709 78.9138 73.1805 75.1755 72.5811 73.0404L71.4914 69.1584L71.0696 79.2516C70.6129 90.181 70.3403 91.0931 63.5303 104.485C62.1188 107.26 60.9624 110.038 60.9606 110.657C60.9544 112.704 59.8049 110.413 58.4667 105.687C56.6924 99.4212 54.5981 96.1012 47.1475 87.743C40.7237 80.5367 36.3941 74.3538 33.3181 67.9938C32.0113 65.2918 31.5562 62.8535 31.3095 57.2342C30.9625 49.3273 30.0873 49.0949 29.3403 56.7112C28.6917 63.3245 29.9914 70.5732 32.9915 77.0736C36.4884 84.6505 39.8801 89.0317 48.0977 96.5865C54.2604 102.252 58.0512 106.899 58.0512 108.788C58.0512 109.132 57.3156 108.694 56.4166 107.815C54.0826 105.532 52.2265 105.102 43.9573 104.929C35.3391 104.749 33.5639 103.976 28.8192 98.3364C24.4004 93.084 23.5998 88.59 25.8344 81.5813L27.0364 77.8114L28.043 82.0149C29.9866 90.1311 35.9282 96.9451 42.934 99.0924C44.0562 99.4363 44.9743 99.5922 44.9743 99.4387C44.9743 99.2852 42.9792 97.126 40.5407 94.6404C34.8776 88.8678 28.6026 78.7956 26.3425 71.8504C24.268 65.4754 22.8615 54.498 23.3998 48.8835C23.9234 43.4236 26.4798 37.3489 28.7112 36.2623C31.6822 34.8157 33.3238 35.2293 37.9214 38.5832C42.2643 41.7513 42.3251 41.769 44.3887 40.4662L46.4719 39.1511L44.9993 41.7324C42.9429 45.337 43.0738 50.4249 45.3484 55.303C47.6996 60.3452 51.03 62.5063 54.2517 61.0802C55.4475 60.5508 56.9995 58.9795 57.7006 57.5882C59.5373 53.9434 58.1153 51.0578 53.6922 49.4543C51.3291 48.5976 50.8257 48.1843 51.876 47.963C54.0034 47.5146 54.6244 46.6173 54.0787 44.78C53.7615 43.7119 52.9845 43.1491 51.8271 43.1491C50.855 43.1491 50.0598 42.8399 50.0598 42.462C50.0598 41.108 53.8409 39.1614 56.1058 39.3493C57.3756 39.4547 59.1377 39.2852 60.0216 38.9728C61.7708 38.3545 63.8074 39.2562 66.9317 42.0325C69.3743 44.2031 71.2492 43.7904 73.756 40.5305L75.6229 38.1025L75.2269 41.0833C74.7668 44.5466 73.7298 46.1066 71.158 47.2045C70.0456 47.6794 69.682 48.1391 70.2433 48.3612C70.7556 48.564 71.9815 48.1649 72.9677 47.4744C73.9538 46.7839 74.7606 46.5495 74.7606 46.9536C74.7606 48.3846 70.9793 52.4659 69.6534 52.4659C68.9134 52.4659 68.1067 52.8138 67.8607 53.2391C67.0799 54.5893 69.2415 58.2045 71.1281 58.704C76.2483 60.0593 80.2022 54.6207 80.1789 46.2547C80.1711 43.4791 79.9297 40.2741 79.6424 39.1326L79.1199 37.0571L81.3557 38.2491C83.4922 39.3881 83.7831 39.3338 87.9046 37.0249C90.2769 35.696 93.3002 34.6087 94.6232 34.6087C104.478 34.6087 104.97 58.5686 95.5368 79.1805C91.8444 87.249 87.9071 92.528 81.6623 97.7832C79.2649 99.8007 76.486 102.139 75.4871 102.979C73.1822 104.917 84.1184 99.7742 87.0579 97.5374C90.7022 94.7642 93.3314 90.9154 95.0775 85.7976C97.5097 78.6694 97.9597 78.6249 97.5429 85.5536C96.601 101.213 93.6223 106.771 86.1552 106.802C84.6305 106.809 82.669 106.403 81.7962 105.902C80.9234 105.4 78.4832 104.924 76.3736 104.843C74.2639 104.763 72.3484 104.495 72.117 104.247C71.4398 103.524 74.6179 99.198 81.7973 91.0722C86.7021 85.5208 89.2424 81.8832 91.2577 77.5255C93.8039 72.0197 94.0117 71.0649 93.9982 64.9285C93.9885 60.5044 93.5123 56.7344 92.5711 53.6305L91.1585 48.9721L90.6994 57.1243C89.8668 71.9067 86.2254 81.9188 77.71 92.8385C70.8033 101.695 67.6549 106.852 65.9821 112.048C65.2142 114.434 64.7176 116.526 64.8786 116.698C65.0396 116.87 65.5384 115.822 65.9871 114.37C67.9793 107.918 73.1297 105.792 81.9176 107.793L86.5319 108.844L83.8902 111.323C81.3971 113.662 80.9262 113.801 75.5176 113.801C70.412 113.801 69.5427 114.021 67.5514 115.811C66.322 116.917 65.3162 118.272 65.3162 118.822C65.3162 119.372 64.8258 120.257 64.2264 120.789C63.6271 121.32 63.1367 122.586 63.1367 123.601C63.1367 126.455 62.0212 125.787 60.9399 122.286ZM58.8353 90.5367C57.8349 87.0167 55.9545 83.2091 53.2094 79.145C50.9416 75.7875 48.2975 71.6429 47.3336 69.9348C45.6843 67.0122 45.6078 66.9664 46.035 69.1584C46.2847 70.4395 47.2321 73.125 48.1405 75.1262C49.4151 77.9345 49.5324 78.6125 48.6545 78.0974C47.1382 77.2078 41.7339 71.111 40.7308 69.1584C40.1408 68.0101 39.9273 67.9199 39.9109 68.8123C39.8779 70.6171 43.3907 76.1267 49.2895 83.5218C52.1847 87.1514 55.7492 92.3362 57.2105 95.0434C59.605 99.4796 59.8907 99.7612 60.1028 97.8948C60.2322 96.7558 59.6618 93.4447 58.8353 90.5367ZM66.6737 92.1404C67.8265 88.439 67.7289 86.5638 65.9059 77.3912L64.3018 69.3196L62.864 72.7328C60.9535 77.268 60.8531 86.1744 62.6426 92.3683C63.7467 96.1898 64.1204 96.7661 64.9083 95.8621C65.4272 95.2667 66.2217 93.5919 66.6737 92.1404ZM60.9572 43.1491C60.9572 42.7221 60.4668 42.3727 59.8675 42.3727C59.2681 42.3727 58.7777 42.7221 58.7777 43.1491C58.7777 43.5761 59.2681 43.9255 59.8675 43.9255C60.4668 43.9255 60.9572 43.5761 60.9572 43.1491ZM58.9473 35.9846C57.8055 35.3964 57.4307 34.6985 57.7249 33.708C58.3011 31.768 55.5991 31.8064 48.97 33.8323C46.1756 34.6864 42.6937 35.3851 41.2326 35.3851H38.5761L38.3051 31.309C38.1561 29.0672 38.1647 22.0903 38.3243 15.8048C38.6083 4.61749 38.6453 4.39441 40.084 5.21726C40.9591 5.71775 43.0539 5.85483 45.2619 5.55608C55.6951 4.14439 56.644 4.13692 59.8402 5.44141C62.763 6.6343 63.2369 6.6429 65.234 5.53922C67.8532 4.09176 71.3896 4.00533 77.0323 5.25087C80.1098 5.93018 81.8883 5.94929 83.7961 5.32354L86.3846 4.47456V18.7896C86.3846 35.2296 86.6031 34.7468 79.906 33.1026C74.4874 31.7722 66.7692 31.1443 66.7692 32.0338C66.7692 32.4252 67.1337 33.1349 67.5791 33.611C68.1748 34.2475 67.7998 34.8022 66.1622 35.7072C63.6136 37.1157 61.3147 37.2041 58.9473 35.9846ZM48.8451 29.4875C52.2179 28.2593 57.8268 28.269 60.4123 29.5075C61.5843 30.0689 61.6837 29.3859 61.6837 20.773C61.6837 11.5061 61.6673 11.4157 59.6858 9.74464C58.0321 8.34996 57.1249 8.14708 54.4187 8.56667C52.6207 8.84546 49.2981 9.26871 47.0353 9.50722C41.9937 10.0386 41.9814 10.0729 42.5764 21.9385C43.073 31.8424 42.9117 31.6481 48.8451 29.4875ZM70.6573 28.1004C73.1139 28.1138 76.4316 28.3921 78.0299 28.7189L80.9358 29.313L81.1719 19.5344L81.408 9.75578L78.9924 9.82244C77.6639 9.85909 74.4242 9.64306 71.7931 9.34235C64.02 8.45396 63.8632 8.67203 63.8632 20.3678C63.8632 29.2428 63.9701 30.0457 65.027 29.1083C65.725 28.4891 67.978 28.0858 70.6573 28.1004Z" fill="black"></path>
</svg><style>@media (prefers-color-scheme: light) { :root { filter: none; } }
@media (prefers-color-scheme: dark) { :root { filter: invert(100%); } }
</style></svg>