<svg width="205" height="205" viewBox="0 0 205 205" fill="none" xmlns="http://www.w3.org/2000/svg">
<g clip-path="url(#clip0_12_52)">
<path d="M76.8749 102.5C93.3603 102.5 106.771 89.0895 106.771 72.6041C106.771 56.1187 93.3603 42.7083 76.8749 42.7083C60.3895 42.7083 46.9791 56.1187 46.9791 72.6041C46.9791 89.0895 60.3895 102.5 76.8749 102.5ZM76.8749 59.7916C83.9645 59.7916 89.6874 65.5145 89.6874 72.6041C89.6874 79.6937 83.9645 85.4166 76.8749 85.4166C69.7853 85.4166 64.0624 79.6937 64.0624 72.6041C64.0624 65.5145 69.7853 59.7916 76.8749 59.7916ZM76.8749 117.448C56.8874 117.448 17.0833 127.442 17.0833 147.344V162.292H136.667V147.344C136.667 127.442 96.8624 117.448 76.8749 117.448ZM37.0708 145.208C44.2458 140.254 61.5853 134.531 76.8749 134.531C92.1645 134.531 109.504 140.254 116.679 145.208H37.0708ZM137.008 117.96C146.917 125.135 153.75 134.702 153.75 147.344V162.292H187.917V147.344C187.917 130.09 158.021 120.267 137.008 117.96ZM128.125 102.5C144.61 102.5 158.021 89.0895 158.021 72.6041C158.021 56.1187 144.61 42.7083 128.125 42.7083C123.512 42.7083 119.242 43.8187 115.312 45.6978C120.694 53.2999 123.854 62.6103 123.854 72.6041C123.854 82.5978 120.694 91.9082 115.312 99.5103C119.242 101.389 123.512 102.5 128.125 102.5Z" fill="white"/>
</g>
<defs>
<clipPath id="clip0_12_52">
<rect width="205" height="205" fill="white"/>
</clipPath>
</defs>
</svg>
